<svg xmlns="http://www.w3.org/2000/svg" viewBox="0 0 680 280" width="680" height="280">
  <defs>
    <style>@import url('https://fonts.googleapis.com/css2?family=Varela+Round&amp;display=swap');</style>
  </defs>

  <rect width="680" height="280" rx="16" fill="#0C1929"/>

  <g transform="translate(148, 132)">
    <g transform="rotate(45)">
      <polygon points="0,-96 13,-17 0,-30 -13,-17" fill="#F5A04A"/>
      <polygon points="0,-96 13,-17 0,-7 -13,-17" fill="#EF9F27" opacity="0.3"/>
      <path d="M-13,-7 Q-30,24 -46,78" stroke="#FFFFFF" stroke-width="3.2" stroke-linecap="round" fill="none" opacity="0.36"/>
      <path d="M13,-7 Q30,24 46,78" stroke="#FFFFFF" stroke-width="3.2" stroke-linecap="round" fill="none" opacity="0.36"/>
      <path d="M-13,-7 Q-35,30 -60,96" stroke="#FFFFFF" stroke-width="1.3" stroke-linecap="round" fill="none" opacity="0.14"/>
      <path d="M13,-7 Q35,30 60,96" stroke="#FFFFFF" stroke-width="1.3" stroke-linecap="round" fill="none" opacity="0.14"/>
      <path d="M-13,-7 Q-40,36 -72,114" stroke="#FFFFFF" stroke-width="0.5" stroke-linecap="round" fill="none" opacity="0.06"/>
      <path d="M13,-7 Q40,36 72,114" stroke="#FFFFFF" stroke-width="0.5" stroke-linecap="round" fill="none" opacity="0.06"/>
      <line x1="-86" y1="0" x2="-30" y2="0" stroke="#FFFFFF" stroke-width="2.8" stroke-linecap="round" opacity="0.26"/>
      <line x1="30" y1="0" x2="86" y2="0" stroke="#FFFFFF" stroke-width="2.8" stroke-linecap="round" opacity="0.26"/>
      <circle cx="0" cy="0" r="11" fill="#0C1929" stroke="#F5A04A" stroke-width="2.8"/>
      <circle cx="0" cy="0" r="5.5" fill="#F5A04A"/>
    </g>
  </g>

  <text x="292" y="106" font-family="'Varela Round', sans-serif" font-size="78" fill="#FFFFFF" letter-spacing="-2.5">Plenee</text>
  <text x="292" y="184" font-family="'Varela Round', sans-serif" font-size="78" fill="#0FA8BC" letter-spacing="-2.5">Navigator</text>
  <text x="294" y="236" font-family="'Varela Round', sans-serif" font-size="17" fill="#F5A04A" letter-spacing="6">A GUIDE FOR WEALTH</text>
</svg>
